<?xml version="1.0" standalone="no"?>
<!DOCTYPE svg PUBLIC "-//W3C//DTD SVG 20010904//EN"
 "http://www.w3.org/TR/2001/REC-SVG-20010904/DTD/svg10.dtd">
<svg version="1.0" xmlns="http://www.w3.org/2000/svg"
 width="512.000000pt" height="512.000000pt" viewBox="0 0 512.000000 512.000000"
 preserveAspectRatio="xMidYMid meet">
<metadata>
Created by potrace 1.11, written by Peter Selinger 2001-2013
</metadata>
<g transform="translate(0.000000,512.000000) scale(0.100000,-0.100000)"
fill="#000000" stroke="none">
<path d="M215 5021 c-22 -10 -54 -34 -72 -52 -68 -72 -63 73 -63 -1849 0
-1922 -5 -1777 63 -1849 48 -51 100 -71 185 -71 l72 0 0 -80 0 -80 577 0 578
0 -160 -160 -160 -160 183 -183 182 -182 423 423 422 422 96 0 95 0 12 -85
c58 -397 302 -736 659 -915 168 -84 329 -120 533 -120 209 0 366 36 545 127
124 62 204 121 310 228 135 135 232 294 290 470 57 177 55 86 55 2104 0 1787
-1 1857 -19 1896 -23 49 -74 99 -123 119 -33 14 -282 16 -2340 16 -2222 0
-2304 -1 -2343 -19z m4605 -152 c48 -17 60 -56 60 -194 l0 -115 -1703 0 -1702
0 -80 -80 -80 -80 -537 0 -538 0 0 194 c0 218 7 251 54 272 26 11 407 13 2262
14 1640 0 2240 -3 2264 -11z m59 -1721 c0 -1182 -1 -1252 -17 -1228 -143 209
-286 338 -489 439 -97 49 -211 87 -313 106 -71 12 -72 13 -27 14 l47 1 0 400
0 400 -80 0 -80 0 0 -400 0 -400 -111 0 c-256 0 -515 -93 -724 -261 -231 -186
-384 -451 -432 -751 l-18 -108 -95 0 -94 0 -236 233 c-130 127 -320 315 -423
416 l-187 185 -178 -178 -177 -177 43 -40 c23 -22 42 -43 42 -47 0 -4 51 -57
112 -119 l113 -113 -578 0 -577 0 0 -80 0 -80 -34 0 c-58 0 -97 20 -112 56
-12 28 -14 259 -14 1429 l0 1395 583 0 582 0 80 80 80 80 1657 0 1658 0 -1
-1252z m-844 -854 c382 -73 683 -351 802 -739 25 -84 27 -102 27 -275 0 -173
-2 -191 -27 -275 -148 -489 -588 -794 -1090 -753 -458 37 -854 404 -927 860
-20 123 -8 332 24 443 155 524 663 840 1191 739z m-2364 -401 c35 -38 185
-191 334 -341 l270 -272 -338 -338 -337 -337 -57 58 -58 57 240 240 240 240
-703 0 -702 0 0 80 0 80 702 0 703 0 -160 161 c-88 88 -199 196 -246 239 l-86
78 59 61 c33 33 63 61 67 61 5 0 37 -30 72 -67z"/>
<path d="M400 4640 l0 -80 80 0 80 0 0 80 0 80 -80 0 -80 0 0 -80z"/>
<path d="M720 4640 l0 -80 80 0 80 0 0 80 0 80 -80 0 -80 0 0 -80z"/>
<path d="M1040 4640 l0 -80 80 0 80 0 0 80 0 80 -80 0 -80 0 0 -80z"/>
<path d="M3032 4220 c-18 -11 -41 -34 -52 -52 -19 -31 -20 -51 -20 -328 0
-277 1 -297 20 -328 38 -62 69 -72 220 -72 151 0 182 10 220 72 19 31 20 51
20 328 0 277 -1 297 -20 328 -38 62 -69 72 -220 72 -117 0 -139 -3 -168 -20z
m248 -380 l0 -240 -80 0 -80 0 0 240 0 240 80 0 80 0 0 -240z"/>
<path d="M3672 4220 c-18 -11 -41 -34 -52 -52 -19 -31 -20 -51 -20 -328 0
-277 1 -297 20 -328 38 -62 69 -72 220 -72 151 0 182 10 220 72 19 31 20 51
20 328 0 277 -1 297 -20 328 -38 62 -69 72 -220 72 -117 0 -139 -3 -168 -20z
m248 -380 l0 -240 -80 0 -80 0 0 240 0 240 80 0 80 0 0 -240z"/>
<path d="M4240 3840 l0 -400 80 0 80 0 0 400 0 400 -80 0 -80 0 0 -400z"/>
<path d="M4560 3840 l0 -400 80 0 80 0 0 400 0 400 -80 0 -80 0 0 -400z"/>
<path d="M695 4061 c-71 -33 -135 -120 -135 -184 0 -74 -46 -117 -125 -117
l-35 0 0 -80 0 -80 35 0 c79 0 125 -43 125 -117 0 -37 28 -94 63 -132 48 -51
100 -71 185 -71 l72 0 0 80 0 80 -35 0 c-81 0 -125 43 -125 120 0 15 -11 48
-25 74 l-24 46 24 46 c14 26 25 60 25 76 0 76 45 118 126 118 l34 0 0 80 0 80
-72 0 c-50 0 -86 -6 -113 -19z"/>
<path d="M1040 4000 l0 -80 80 0 80 0 0 80 0 80 -80 0 -80 0 0 -80z"/>
<path d="M1360 4000 l0 -80 720 0 720 0 0 80 0 80 -720 0 -720 0 0 -80z"/>
<path d="M1040 3680 l0 -80 880 0 880 0 0 80 0 80 -880 0 -880 0 0 -80z"/>
<path d="M1040 3360 l0 -80 880 0 880 0 0 80 0 80 -880 0 -880 0 0 -80z"/>
<path d="M3352 3260 c-18 -11 -41 -34 -52 -52 -19 -31 -20 -51 -20 -328 0
-277 1 -297 20 -328 38 -62 69 -72 220 -72 151 0 182 10 220 72 19 31 20 51
20 328 0 277 -1 297 -20 328 -38 62 -69 72 -220 72 -117 0 -139 -3 -168 -20z
m248 -380 l0 -240 -80 0 -80 0 0 240 0 240 80 0 80 0 0 -240z"/>
<path d="M4240 2880 l0 -400 80 0 80 0 0 400 0 400 -80 0 -80 0 0 -400z"/>
<path d="M4560 2880 l0 -400 80 0 80 0 0 400 0 400 -80 0 -80 0 0 -400z"/>
<path d="M400 3040 l0 -80 880 0 880 0 0 80 0 80 -880 0 -880 0 0 -80z"/>
<path d="M2320 3040 l0 -80 34 0 c81 0 126 -42 126 -118 0 -16 11 -49 24 -74
l24 -46 -24 -48 c-13 -26 -24 -59 -24 -74 0 -77 -44 -120 -125 -120 l-35 0 0
-80 0 -80 73 0 c84 0 136 20 184 71 35 38 63 95 63 132 0 74 46 117 125 117
l35 0 0 80 0 80 -34 0 c-81 0 -126 42 -126 117 -1 67 -69 157 -142 187 -22 10
-67 16 -108 16 l-70 0 0 -80z"/>
<path d="M400 2720 l0 -80 880 0 880 0 0 80 0 80 -880 0 -880 0 0 -80z"/>
<path d="M400 2400 l0 -80 560 0 560 0 0 80 0 80 -560 0 -560 0 0 -80z"/>
<path d="M1680 2400 l0 -80 80 0 80 0 0 80 0 80 -80 0 -80 0 0 -80z"/>
<path d="M2000 2400 l0 -80 80 0 80 0 0 80 0 80 -80 0 -80 0 0 -80z"/>
<path d="M3835 1846 c-9 -28 -156 -1090 -153 -1104 2 -13 22 -20 82 -28 56 -7
79 -7 81 0 9 28 156 1090 153 1104 -2 13 -22 20 -82 28 -56 7 -79 7 -81 0z"/>
<path d="M3432 1701 c-13 -14 -95 -115 -183 -223 l-159 -198 180 -225 c99
-124 184 -225 189 -225 5 0 35 21 68 47 32 26 60 48 61 49 2 1 -60 82 -137
178 l-142 176 141 176 141 175 -27 22 c-28 21 -80 58 -99 69 -5 3 -20 -7 -33
-21z"/>
<path d="M4182 1702 c-21 -15 -51 -37 -66 -49 l-27 -22 141 -175 141 -176
-142 -176 c-77 -96 -139 -177 -137 -178 1 -1 29 -23 61 -49 33 -26 63 -47 68
-47 5 0 90 101 189 225 l180 225 -161 203 c-89 111 -172 212 -185 224 l-22 22
-40 -27z"/>
</g>
</svg>
